<?xml version="1.0" encoding="utf-8"?>
<!-- Generator: Adobe Illustrator 23.1.0, SVG Export Plug-In . SVG Version: 6.00 Build 0)  -->
<svg version="1.2" baseProfile="tiny" id="Layer_1" xmlns="http://www.w3.org/2000/svg" xmlns:xlink="http://www.w3.org/1999/xlink"
	 x="0px" y="0px" viewBox="0 0 1000 1000" xml:space="preserve">
<path fill="#E3E3E3" d="M192.81,754.89c42.52-32.51,90.04-58.15,142.56-76.91c52.52-18.76,107.55-28.14,165.07-28.14
	c57.53,0,112.55,9.38,165.07,28.14c52.52,18.76,100.04,44.39,142.56,76.91c29.18-34.18,51.9-72.95,68.16-116.3
	c16.26-43.35,24.39-89.62,24.39-138.81c0-110.88-38.98-205.3-116.93-283.25S611.33,99.6,500.44,99.6s-205.3,38.98-283.25,116.93
	S100.27,388.9,100.27,499.78c0,49.19,8.13,95.46,24.39,138.81C140.91,681.94,163.63,720.71,192.81,754.89z M500.44,549.8
	c-49.19,0-90.67-16.88-124.43-50.65s-50.65-75.24-50.65-124.43s16.88-90.67,50.65-124.43s75.24-50.65,124.43-50.65
	c49.19,0,90.67,16.88,124.43,50.65c33.77,33.76,50.65,75.24,50.65,124.43s-16.88,90.67-50.65,124.43
	C591.11,532.92,549.63,549.8,500.44,549.8z M500.44,1000c-69.2,0-134.23-13.13-195.09-39.39s-113.8-61.9-158.82-106.92
	S65.88,755.72,39.61,694.86S0.22,568.98,0.22,499.78s13.13-134.23,39.39-195.09s61.9-113.8,106.92-158.82S244.5,65.21,305.36,38.95
	S431.25-0.44,500.44-0.44s134.23,13.13,195.09,39.39c60.86,26.26,113.8,61.9,158.82,106.92c45.02,45.02,80.66,97.96,106.92,158.82
	s39.39,125.89,39.39,195.09S987.54,634,961.27,694.86s-61.9,113.8-106.92,158.82c-45.02,45.02-97.96,80.66-158.82,106.92
	C634.67,986.87,569.64,1000,500.44,1000z M500.44,899.96c44.19,0,85.87-6.46,125.06-19.38c39.18-12.92,75.03-31.47,107.55-55.65
	c-32.51-24.18-68.36-42.73-107.55-55.65c-39.18-12.92-80.87-19.38-125.06-19.38s-85.87,6.46-125.06,19.38
	c-39.18,12.92-75.03,31.47-107.55,55.65c32.51,24.18,68.36,42.73,107.55,55.65C414.57,893.49,456.26,899.96,500.44,899.96z
	 M500.44,449.76c21.68,0,39.6-7.09,53.77-21.26c14.17-14.17,21.26-32.1,21.26-53.77s-7.09-39.6-21.26-53.77s-32.1-21.26-53.77-21.26
	c-21.68,0-39.6,7.09-53.77,21.26s-21.26,32.1-21.26,53.77s7.09,39.6,21.26,53.77C460.84,442.67,478.77,449.76,500.44,449.76z"/>
</svg>
