<?xml version="1.0" encoding="utf-8"?>
<!-- Generator: Adobe Illustrator 23.1.0, SVG Export Plug-In . SVG Version: 6.00 Build 0)  -->
<svg version="1.2" baseProfile="tiny" id="Layer_1" xmlns="http://www.w3.org/2000/svg" xmlns:xlink="http://www.w3.org/1999/xlink"
	 x="0px" y="0px" viewBox="0 0 1000 1000" xml:space="preserve">
<rect x="0" fill="#3944CC" width="1000" height="1000"/>
<g>
	<path fill="#FFDE59" d="M893.45,804.6L766.53,677.69l59.23-59.23l126.92,126.92L893.45,804.6z M741.14,296.93l-59.23-59.23
		l126.92-126.92l59.23,59.23L741.14,296.93z M258.86,296.93L131.94,170.01l59.23-59.23L318.08,237.7L258.86,296.93z M106.55,804.6
		l-59.23-59.23l126.92-126.92l59.23,59.23L106.55,804.6z M366.74,725.28L500,644.9l133.26,81.44l-34.9-152.3l117.4-101.53
		l-154.42-13.75L500,314.91l-61.34,142.78l-154.42,13.75l117.4,102.59L366.74,725.28z M238.76,901.91l68.75-297.2L76.94,404.81
		l304.6-26.44L500,98.09l118.46,280.28l304.6,26.44l-230.57,199.9l68.75,297.2L500,744.32L238.76,901.91z"/>
</g>
</svg>
