<?xml version="1.0" encoding="utf-8"?>
<!-- Generator: Adobe Illustrator 23.1.0, SVG Export Plug-In . SVG Version: 6.00 Build 0)  -->
<svg version="1.2" baseProfile="tiny" id="Layer_1" xmlns="http://www.w3.org/2000/svg" xmlns:xlink="http://www.w3.org/1999/xlink"
	 x="0px" y="0px" viewBox="0 0 1000 1000" xml:space="preserve">
<rect fill="#FFDE59" width="1000" height="1000"/>
<path fill="black" d="M499.17,919c-108.36,0-202.38-36-282.08-108.01S92.31,649.16,81.83,541.5h84.94
	c10.49,84.59,47.36,154.67,110.63,210.25c63.27,55.58,137.19,83.36,221.78,83.36c93.68,0,173.02-32.51,238.03-97.52
	s97.52-144.36,97.52-238.03s-32.51-173.02-97.52-238.03S592.85,164,499.17,164c-60.12,0-115.87,14.86-167.25,44.57
	s-92.1,70.78-122.16,123.21H331.4v83.89H88.12c20.27-97.87,68.86-178.26,145.76-241.18s165.33-94.38,265.3-94.38
	c58.02,0,112.55,11.01,163.58,33.03c51.03,22.02,95.42,51.91,133.17,89.66s67.64,82.14,89.66,133.17
	c22.02,51.03,33.03,105.56,33.03,163.58c0,58.02-11.01,112.55-33.03,163.58c-22.02,51.03-51.91,95.42-89.66,133.17
	s-82.14,67.64-133.17,89.66C611.72,907.99,557.2,919,499.17,919z M616.62,675.72L457.23,516.33v-226.5h83.89v192.94L675.34,617
	L616.62,675.72z"/>
</svg>
